{
  "accessors": [
    {
      "bufferView": 2,
      "componentType": 5126,
      "count": 78,
      "max": [
        5.331480503082275,
        5.398586273193359,
        3.1494033336639404
      ],
      "min": [
        -5.339810371398926,
        -5.272704601287842,
        -0.47432950139045715
      ],
      "type": "VEC3"
    },
    {
      "bufferView": 2,
      "byteOffset": 936,
      "componentType": 5126,
      "count": 78,
      "max": [
        0.9745569825172424,
        0.9960707426071167,
        1.0
      ],
      "min": [
        -0.9733409881591797,
        -0.9733409285545349,
        -0.2293631136417389
      ],
      "type": "VEC3"
    },
    {
      "bufferView": 1,
      "componentType": 5126,
      "count": 78,
      "max": [
        0.8047335743904114,
        0.7945906519889832
      ],
      "min": [
        0.055241309106349945,
        0.019677048549056053
      ],
      "type": "VEC2"
    },
    {
      "bufferView": 0,
      "componentType": 5125,
      "count": 132,
      "type": "SCALAR"
    },
    {
      "bufferView": 2,
      "byteOffset": 1872,
      "componentType": 5126,
      "count": 6603,
      "max": [
        0.574597954750061,
        2.811591625213623,
        5.901148319244385
      ],
      "min": [
        -2.34030818939209,
        -1.7074376344680786,
        0.0
      ],
      "type": "VEC3"
    },
    {
      "bufferView": 2,
      "byteOffset": 81108,
      "componentType": 5126,
      "count": 6603,
      "max": [
        1.0,
        1.0,
        1.0
      ],
      "min": [
        -1.0,
        -1.0,
        -1.0
      ],
      "type": "VEC3"
    },
    {
      "bufferView": 1,
      "byteOffset": 624,
      "componentType": 5126,
      "count": 6603,
      "max": [
        0.9550272226333618,
        0.9967324137687683
      ],
      "min": [
        0.011766030453145504,
        0.004270439967513084
      ],
      "type": "VEC2"
    },
    {
      "bufferView": 1,
      "byteOffset": 53448,
      "componentType": 5126,
      "count": 6603,
      "max": [
        0.9550272226333618,
        0.9967324137687683
      ],
      "min": [
        0.011766030453145504,
        0.004270439967513084
      ],
      "type": "VEC2"
    },
    {
      "bufferView": 0,
      "byteOffset": 528,
      "componentType": 5125,
      "count": 9141,
      "type": "SCALAR"
    },
    {
      "bufferView": 2,
      "byteOffset": 160344,
      "componentType": 5126,
      "count": 7917,
      "max": [
        2.7316529750823975,
        3.0294225215911865,
        6.7461066246032715
      ],
      "min": [
        -3.9886887073516846,
        -3.350670576095581,
        -0.4743296504020691
      ],
      "type": "VEC3"
    },
    {
      "bufferView": 2,
      "byteOffset": 255348,
      "componentType": 5126,
      "count": 7917,
      "max": [
        1.0,
        1.0,
        1.0
      ],
      "min": [
        -1.0,
        -1.0,
        -1.0
      ],
      "type": "VEC3"
    },
    {
      "bufferView": 1,
      "byteOffset": 106272,
      "componentType": 5126,
      "count": 7917,
      "max": [
        0.9921603798866272,
        0.9996115565299988
      ],
      "min": [
        0.0,
        0.0
      ],
      "type": "VEC2"
    },
    {
      "bufferView": 0,
      "byteOffset": 37092,
      "componentType": 5125,
      "count": 12105,
      "type": "SCALAR"
    }
  ],
  "asset": {
    "extras": {
      "author": "Bjarne Stokhof (https://sketchfab.com/stokhuis)",
      "license": "CC-BY-4.0 (http://creativecommons.org/licenses/by/4.0/)",
      "source": "https://sketchfab.com/3d-models/dutch-house-48186aa36d644ad296f135035d0d9aad",
      "title": "Dutch House"
    },
    "generator": "Sketchfab-16.65.0",
    "version": "2.0"
  },
  "bufferViews": [
    {
      "buffer": 0,
      "byteLength": 85512,
      "name": "floatBufferViews",
      "target": 34963
    },
    {
      "buffer": 0,
      "byteLength": 169608,
      "byteOffset": 85512,
      "byteStride": 8,
      "name": "floatBufferViews",
      "target": 34962
    },
    {
      "buffer": 0,
      "byteLength": 350352,
      "byteOffset": 255120,
      "byteStride": 12,
      "name": "floatBufferViews",
      "target": 34962
    }
  ],
  "buffers": [
    {
      "byteLength": 605472,
      "uri": "scene.bin"
    }
  ],
  "images": [
    {
      "uri": "textures/soloport_alpha_baseColor.png"
    },
    {
      "uri": "textures/soloport_house_baseColor.png"
    },
    {
      "uri": "textures/soloport_house_metallicRoughness.png"
    },
    {
      "uri": "textures/soloport_props_baseColor.png"
    }
  ],
  "materials": [
    {
      "alphaMode": "BLEND",
      "doubleSided": true,
      "name": "soloport_alpha",
      "pbrMetallicRoughness": {
        "baseColorTexture": {
          "index": 0
        },
        "metallicFactor": 0.0,
        "roughnessFactor": 0.9563053493
      }
    },
    {
      "doubleSided": true,
      "name": "soloport_house",
      "pbrMetallicRoughness": {
        "baseColorTexture": {
          "index": 1
        },
        "metallicFactor": 0.0,
        "metallicRoughnessTexture": {
          "index": 2
        }
      }
    },
    {
      "doubleSided": true,
      "name": "soloport_props",
      "pbrMetallicRoughness": {
        "baseColorTexture": {
          "index": 3
        },
        "metallicFactor": 0.0,
        "roughnessFactor": 0.8211145618
      }
    }
  ],
  "meshes": [
    {
      "name": "soloport_alpha_soloport_alpha_0",
      "primitives": [
        {
          "attributes": {
            "NORMAL": 1,
            "POSITION": 0,
            "TEXCOORD_0": 2
          },
          "indices": 3,
          "material": 0,
          "mode": 4
        }
      ]
    },
    {
      "name": "soloport_house_highpoly_soloport_house_0",
      "primitives": [
        {
          "attributes": {
            "NORMAL": 5,
            "POSITION": 4,
            "TEXCOORD_0": 6,
            "TEXCOORD_1": 7
          },
          "indices": 8,
          "material": 1,
          "mode": 4
        }
      ]
    },
    {
      "name": "soloport_props_high_poly_soloport_props_0",
      "primitives": [
        {
          "attributes": {
            "NORMAL": 10,
            "POSITION": 9,
            "TEXCOORD_0": 11
          },
          "indices": 12,
          "material": 2,
          "mode": 4
        }
      ]
    }
  ],
  "nodes": [
    {
      "children": [
        1
      ],
      "matrix": [
        1.0,
        0.0,
        0.0,
        0.0,
        0.0,
        2.220446049250313e-16,
        -1.0,
        0.0,
        0.0,
        1.0,
        2.220446049250313e-16,
        0.0,
        0.0,
        0.0,
        0.0,
        1.0
      ],
      "name": "Sketchfab_model"
    },
    {
      "children": [
        2
      ],
      "matrix": [
        1.0,
        0.0,
        0.0,
        0.0,
        0.0,
        0.0,
        1.0,
        0.0,
        0.0,
        -1.0,
        0.0,
        0.0,
        0.0,
        0.0,
        0.0,
        1.0
      ],
      "name": "000e9b4784d242c2a88b991cea150350.fbx"
    },
    {
      "children": [
        3,
        5,
        7
      ],
      "name": "RootNode"
    },
    {
      "children": [
        4
      ],
      "matrix": [
        100.0,
        0.0,
        0.0,
        0.0,
        0.0,
        -1.629206793918314e-05,
        -99.99999999999868,
        0.0,
        0.0,
        99.99999999999868,
        -1.629206793918314e-05,
        0.0,
        0.0,
        0.0,
        0.0,
        1.0
      ],
      "name": "soloport_alpha"
    },
    {
      "mesh": 0,
      "name": "soloport_alpha_soloport_alpha_0"
    },
    {
      "children": [
        6
      ],
      "matrix": [
        100.0,
        0.0,
        0.0,
        0.0,
        0.0,
        -1.629206793918314e-05,
        -99.99999999999868,
        0.0,
        0.0,
        99.99999999999868,
        -1.629206793918314e-05,
        0.0,
        0.0,
        0.0,
        0.0,
        1.0
      ],
      "name": "soloport_house_highpoly"
    },
    {
      "mesh": 1,
      "name": "soloport_house_highpoly_soloport_house_0"
    },
    {
      "children": [
        8
      ],
      "matrix": [
        100.0,
        0.0,
        0.0,
        0.0,
        0.0,
        -1.629206793918314e-05,
        -99.99999999999868,
        0.0,
        0.0,
        99.99999999999868,
        -1.629206793918314e-05,
        0.0,
        0.0,
        0.0,
        0.0,
        1.0
      ],
      "name": "soloport_props_high_poly"
    },
    {
      "mesh": 2,
      "name": "soloport_props_high_poly_soloport_props_0"
    }
  ],
  "samplers": [
    {
      "magFilter": 9729,
      "minFilter": 9987,
      "wrapS": 10497,
      "wrapT": 10497
    }
  ],
  "scene": 0,
  "scenes": [
    {
      "name": "Sketchfab_Scene",
      "nodes": [
        0
      ]
    }
  ],
  "textures": [
    {
      "sampler": 0,
      "source": 0
    },
    {
      "sampler": 0,
      "source": 1
    },
    {
      "sampler": 0,
      "source": 2
    },
    {
      "sampler": 0,
      "source": 3
    }
  ]
}
